<?xml version="1.0" encoding="UTF-8" standalone="no"?>
<svg
   width="22"
   height="22"
   viewBox="0 0 22 22"
   version="1.1"
   id="svg1"
   sodipodi:docname="symbolic-phone-apple.svg"
   xml:space="preserve"
   inkscape:version="1.4.3 (0d15f75042, 2025-12-25)"
   xmlns:inkscape="http://www.inkscape.org/namespaces/inkscape"
   xmlns:sodipodi="http://sodipodi.sourceforge.net/DTD/sodipodi-0.dtd"
   xmlns="http://www.w3.org/2000/svg"
   xmlns:svg="http://www.w3.org/2000/svg"><sodipodi:namedview
     id="namedview1"
     pagecolor="#ffffff"
     bordercolor="#000000"
     borderopacity="0.25"
     inkscape:showpageshadow="2"
     inkscape:pageopacity="0.0"
     inkscape:pagecheckerboard="0"
     inkscape:deskcolor="#d1d1d1"
     inkscape:zoom="37.380236"
     inkscape:cx="-3.2236287"
     inkscape:cy="12.346097"
     inkscape:window-width="3440"
     inkscape:window-height="1372"
     inkscape:window-x="0"
     inkscape:window-y="0"
     inkscape:window-maximized="1"
     inkscape:current-layer="svg1" /><defs
     id="defs1"><style
       id="current-color-scheme"
       type="text/css">
   .ColorScheme-Text { color:#dfdfdf; } .ColorScheme-Highlight { color:#4285f4; } .ColorScheme-NeutralText { color:#ff9800; } .ColorScheme-PositiveText { color:#4caf50; } .ColorScheme-NegativeText { color:#f44336; }
  </style><linearGradient
       id="linearGradient11"
       x1="24.339"
       x2="24.132"
       y1="4.0543"
       y2="44.81"
       gradientTransform="matrix(1.0655,0,0,1,-62.3916,-49.4997)"
       gradientUnits="userSpaceOnUse"><stop
         style="stop-color:#2670a1"
         offset="0"
         id="stop1" /><stop
         style="stop-color:#1d5480"
         offset="1"
         id="stop2" /></linearGradient></defs><path
     id="path1"
     style="fill:currentColor;stroke-width:1.46419"
     class="ColorScheme-Text"
     d="m 1.1296024,5.5693495 c -0.1545773,0 -0.3003139,0.031568 -0.4403999,0.094367 C 0.5539408,5.7216835 0.4360369,5.8024922 0.334595,5.9039355 0.233156,6.0053745 0.151453,6.1241772 0.0886569,6.2642634 0.0306899,6.4043422 -1e-7,6.5566925 -1e-7,6.7161015 c 0,0.1545772 0.03069,0.2994249 0.088657,0.4346807 0.062799,0.1352617 0.1445007,0.2531669 0.2459381,0.3546088 0.1014391,0.101439 0.2193515,0.1831406 0.3546075,0.2459382 0.1400788,0.057967 0.2858225,0.085786 0.4403999,0.085786 0.1594091,0 0.3088936,-0.027819 0.4489798,-0.085786 C 1.7186611,7.6885301 1.8403278,7.6068284 1.9417696,7.505391 2.0480404,7.403952 2.133489,7.2860366 2.1962865,7.1507822 c 0.062799,-0.1352616 0.094367,-0.2801035 0.094367,-0.4346807 0,-0.1594091 -0.031568,-0.3117519 -0.094367,-0.4518381 C 2.1334875,6.1241845 2.0480418,6.0053774 1.9417696,5.9039355 1.8403307,5.8024966 1.7186684,5.7216822 1.5785822,5.6637165 1.4385034,5.6009175 1.2890113,5.5693495 1.1296024,5.5693495 Z m 7.5954747,0.1515669 c -0.792211,0 -1.515561,0.1355691 -2.167683,0.4060837 C 5.9052692,6.3926799 5.3444281,6.7640741 4.8758644,7.2422984 4.4121313,7.7205226 4.053761,8.2897505 3.797742,8.9467053 3.5417229,9.598829 3.4145362,10.309156 3.4145362,11.077214 c 0,0.768058 0.127194,1.479269 0.3832058,2.136225 0.256019,0.652124 0.6143893,1.217603 1.0781224,1.695826 0.4685637,0.478225 1.0294047,0.853369 1.6815297,1.123882 0.652122,0.265679 1.375472,0.397503 2.167683,0.397503 0.797041,0 1.5212789,-0.131821 2.1734029,-0.397503 0.652125,-0.270513 1.209218,-0.645656 1.672948,-1.123882 0.463736,-0.478222 0.821217,-1.043702 1.072405,-1.695826 0.256019,-0.656956 0.383205,-1.368168 0.383205,-2.136227 0,-0.512038 -0.05565,-1.000455 -0.171583,-1.4641878 C 13.744352,9.1492933 13.578093,8.7193871 13.360718,8.3232819 13.143343,7.9271766 12.879696,7.5696951 12.56571,7.2508785 12.256556,6.9272315 11.904599,6.6551986 11.513325,6.432992 11.122049,6.2059565 10.692145,6.0304223 10.223582,5.9096591 9.7550181,5.784061 9.2564381,5.7209164 8.7250771,5.7209164 Z m 10.0434129,0 c -0.550683,0 -1.039099,0.08545 -1.464188,0.2545168 C 16.879216,6.144503 16.521734,6.3701593 16.2319,6.650333 15.942067,6.9305039 15.720159,7.2517746 15.565579,7.6140659 15.415832,7.9763573 15.339661,8.34775 15.339661,8.7293641 c 0,0.4782243 0.06779,0.8811946 0.20304,1.2096718 0.140079,0.3236471 0.324896,0.5947931 0.551931,0.8121671 0.227037,0.217375 0.485157,0.393798 0.77499,0.529052 0.289834,0.135262 0.584167,0.249419 0.88366,0.346029 0.299494,0.09661 0.593828,0.186696 0.883661,0.268816 0.289831,0.08213 0.547955,0.185228 0.77499,0.305991 0.227037,0.115935 0.408095,0.260781 0.54335,0.434681 0.140079,0.173898 0.211622,0.396696 0.211622,0.672038 0,0.492717 -0.153233,0.872498 -0.457559,1.138178 -0.304323,0.26085 -0.734232,0.391784 -1.289744,0.391784 -0.362292,0 -0.674287,-0.04924 -0.935136,-0.145849 -0.256019,-0.101434 -0.481677,-0.210965 -0.674898,-0.33173 -0.193224,-0.120766 -0.35751,-0.2294 -0.497596,-0.32601 -0.140079,-0.101435 -0.271021,-0.154425 -0.391784,-0.154425 -0.08696,0 -0.16865,0.02605 -0.245939,0.07435 -0.07729,0.04347 -0.14043,0.09823 -0.188742,0.165864 l -0.571949,0.935136 c 0.202883,0.207714 0.434068,0.394299 0.694918,0.56337 0.260849,0.169068 0.53752,0.313916 0.832185,0.434679 0.299494,0.120766 0.611489,0.214599 0.935136,0.277397 0.323647,0.06763 0.653302,0.100096 0.986611,0.100096 0.579664,0 1.092158,-0.08634 1.5414,-0.260235 0.44924,-0.178731 0.829021,-0.419191 1.138177,-0.723516 0.313986,-0.309154 0.549808,-0.670386 0.709217,-1.080982 C 21.91544,13.950489 22,13.506671 22,13.033277 22,12.598527 21.92846,12.228022 21.788378,11.923697 21.653116,11.619367 21.472063,11.364993 21.245028,11.15728 21.01799,10.944741 20.75987,10.769207 20.470038,10.633953 20.180204,10.493872 19.882121,10.375067 19.577798,10.273625 19.273472,10.167354 18.978251,10.067993 18.688418,9.9762117 18.398585,9.8844364 18.140463,9.7804322 17.913428,9.6644977 17.686392,9.5485649 17.501584,9.4083563 17.361497,9.2441169 17.226236,9.079879 17.158456,8.8727711 17.158456,8.6264128 c 0,-0.1932215 0.03531,-0.369643 0.102952,-0.5290522 0.06763,-0.1642379 0.167877,-0.30445 0.303132,-0.4203829 0.140079,-0.1159344 0.311872,-0.2031576 0.514755,-0.2659552 0.202883,-0.06763 0.438706,-0.1029469 0.709215,-0.1029469 0.299494,0 0.557616,0.039957 0.77499,0.1172521 0.222206,0.072463 0.41629,0.1541584 0.580528,0.2459382 0.16424,0.091775 0.30445,0.1772268 0.420383,0.2545168 0.120766,0.072463 0.230288,0.1086722 0.331729,0.1086722 0.09661,0 0.177421,-0.0223 0.240219,-0.065771 0.06763,-0.048303 0.130781,-0.1244853 0.188743,-0.2259198 L 21.811253,6.824787 C 21.44413,6.4769864 20.997452,6.2058422 20.475753,6.0126207 19.954053,5.8193991 19.386798,5.7209266 18.768487,5.7209266 Z M 8.7250771,7.382427 c 0.512038,0 0.969769,0.08258 1.3755349,0.2516559 0.410598,0.1690712 0.758804,0.4132772 1.043807,0.7320939 0.285002,0.3188182 0.506023,0.7078733 0.6606,1.1667762 0.154577,0.4540703 0.231638,0.969426 0.231638,1.544261 0,0.574835 -0.07706,1.091077 -0.231638,1.549978 -0.154577,0.454073 -0.375598,0.839378 -0.6606,1.158194 -0.285003,0.313986 -0.633209,0.557307 -1.043807,0.726375 -0.4057659,0.169071 -0.8634969,0.251658 -1.3755349,0.251658 -0.512039,0 -0.973519,-0.08259 -1.384115,-0.251658 C 6.9351961,14.342693 6.5869891,14.099372 6.2971561,13.785386 6.0121534,13.46657 5.7911342,13.081265 5.6365556,12.627192 5.4819783,12.168289 5.4049165,11.652047 5.4049165,11.077212 c 0,-0.574834 0.07706,-1.0901903 0.2316391,-1.544259 C 5.7911342,9.0740486 6.0121534,8.6849935 6.2971561,8.3661767 6.5869891,8.0473601 6.9351961,7.8031526 7.3409621,7.6340829 7.7515581,7.465013 8.2130381,7.3824255 8.7250771,7.382427 Z M 0.2459429,8.880931 v 7.435328 H 2.0447198 V 8.880931 Z"
     sodipodi:nodetypes="scscscscsccsssccsscccscccscscscscccsssscscscscccscscscscccsccscccscccccscscccscccscccssscscscccscccscccsccccc" /></svg>
