<?xml version="1.0" encoding="UTF-8"?>
<svg xmlns="http://www.w3.org/2000/svg" width="16" height="16" viewBox="0 0 16 16">
  <path fill="currentColor" d="M 9.5 1 C 8.12 1 7 2.12 7 3.5 C 7 3.67 7.02 3.83 7.05 4 L 5.5 4 C 5.22 4 5 4.22 5 4.5 L 5 5.38 C 4.38 5.92 4 6.71 4 7.5 L 4 8 L 3 8 L 3 10 L 4 10 L 4 11 L 3 11 L 3 13 L 4 13 L 4 13.5 C 4 14.33 4.67 15 5.5 15 L 10.5 15 C 11.33 15 12 14.33 12 13.5 L 12 13 L 13 13 L 13 11 L 12 11 L 12 10 L 13 10 L 13 8 L 12 8 L 12 7.5 C 12 6.71 11.62 5.92 11 5.38 L 11 4.5 C 11 4.22 10.78 4 10.5 4 L 8.95 4 C 8.98 3.83 9 3.67 9 3.5 C 9 3.22 9.22 3 9.5 3 L 10 3 L 10 1 Z M 6 9 C 6.55 9 7 9.45 7 10 C 7 10.55 6.55 11 6 11 C 5.45 11 5 10.55 5 10 C 5 9.45 5.45 9 6 9 Z M 10 9 C 10.55 9 11 9.45 11 10 C 11 10.55 10.55 11 10 11 C 9.45 11 9 10.55 9 10 C 9 9.45 9.45 9 10 9 Z"/>
</svg>
