<svg xmlns="http://www.w3.org/2000/svg" width="22" height="22" viewBox="0 0 22 22">
 <defs>
  <style id="current-color-scheme" type="text/css">
   .ColorScheme-Text { color:#dfdfdf; } .ColorScheme-Highlight { color:#4285f4; } .ColorScheme-NeutralText { color:#ff9800; } .ColorScheme-PositiveText { color:#4caf50; } .ColorScheme-NegativeText { color:#f44336; }
  </style>
 </defs>
 <path style="fill:currentColor" class="ColorScheme-Text" d="M 3.6075716,4.2242723 C 2.6759025,4.2462992 2.1097028,5.2599789 2.5796526,6.0647365 L 4.2683765,8.9918578 C 1.9077559,10.800141 0.37248695,13.480909 0.00740811,16.432033 L 6.58108e-5,16.571536 C -0.00541639,17.235153 0.53322994,17.774894 1.196857,17.770774 c 0.5992669,0.0027 1.1068753,-0.441043 1.1845542,-1.035261 0.5351932,-4.351345 4.2308062,-7.6207014 8.6149398,-7.6212839 4.403491,-1.566e-4 8.109554,3.2966929 8.622281,7.6702319 h 0.0073 c 0.09745,0.5767 0.599708,0.996976 1.184553,0.991208 0.660757,2.2e-5 1.194888,-0.538505 1.18945,-1.199238 V 16.458954 C 21.639953,13.53628 20.136933,10.875193 17.819774,9.0579383 L 19.545209,6.0720788 C 19.88612,5.4819506 19.67923,4.7270225 19.085092,4.3931447 18.497441,4.0527126 17.744975,4.255942 17.408606,4.8459185 L 15.719883,7.7632501 C 14.241554,7.0704352 12.62897,6.7111555 10.996351,6.710857 9.4006674,6.7126583 7.8240065,7.0573709 6.3731627,7.7216438 L 4.7089131,4.8459185 C 4.484729,4.4572892 4.0658642,4.2224955 3.6173612,4.234062 Z m 3.7494563,8.5806747 c -0.699773,-0.0013 -1.2677666,0.565547 -1.2677666,1.265319 0.00392,0.696902 0.5708522,1.259339 1.2677666,1.257977 0.6930939,-0.0039 1.2539653,-0.564882 1.2579766,-1.257977 1.22e-5,-0.695959 -0.5620291,-1.26128 -1.2579766,-1.265319 m 7.3789891,0 c -0.695947,0.0039 -1.257989,0.56936 -1.257977,1.265319 0.0039,0.693095 0.564883,1.253966 1.257977,1.257977 0.693094,-0.0039 1.253966,-0.564882 1.257976,-1.257977 1.4e-5,-0.695959 -0.562028,-1.26128 -1.257976,-1.265319"/>
</svg>
